<mxfile host="app.diagrams.net" modified="2023-09-14T19:03:02.706Z" agent="Mozilla/5.0 (Windows NT 10.0; Win64; x64; rv:109.0) Gecko/20100101 Firefox/117.0" etag="ILHZtKPiBnCaY_u9Z48Q" version="21.7.5" type="github">
  <diagram name="Page-1" id="eQ4UkoVIjL1B9n0ft8tb">
    <mxGraphModel dx="1232" dy="1133" grid="1" gridSize="10" guides="1" tooltips="1" connect="1" arrows="1" fold="1" page="1" pageScale="1" pageWidth="1100" pageHeight="850" math="0" shadow="0">
      <root>
        <mxCell id="0" />
        <mxCell id="1" parent="0" />
        <mxCell id="Q8AhBht7Yoh7dVEc8vl9-1" value="&lt;font style=&quot;font-size: 22px;&quot;&gt;s1&lt;/font&gt;" style="ellipse;whiteSpace=wrap;html=1;aspect=fixed;" vertex="1" parent="1">
          <mxGeometry x="160" y="240" width="80" height="80" as="geometry" />
        </mxCell>
        <mxCell id="Q8AhBht7Yoh7dVEc8vl9-2" value="" style="endArrow=classic;html=1;rounded=0;entryX=0;entryY=0.5;entryDx=0;entryDy=0;" edge="1" parent="1" target="Q8AhBht7Yoh7dVEc8vl9-1">
          <mxGeometry width="50" height="50" relative="1" as="geometry">
            <mxPoint x="120" y="280" as="sourcePoint" />
            <mxPoint x="570" y="440" as="targetPoint" />
          </mxGeometry>
        </mxCell>
        <mxCell id="Q8AhBht7Yoh7dVEc8vl9-4" value="&lt;font style=&quot;font-size: 22px;&quot;&gt;st2&lt;/font&gt;" style="ellipse;whiteSpace=wrap;html=1;aspect=fixed;" vertex="1" parent="1">
          <mxGeometry x="300" y="480" width="80" height="80" as="geometry" />
        </mxCell>
        <mxCell id="Q8AhBht7Yoh7dVEc8vl9-5" value="&lt;font style=&quot;font-size: 18px;&quot;&gt;b&lt;/font&gt;" style="text;html=1;strokeColor=none;fillColor=none;align=center;verticalAlign=middle;whiteSpace=wrap;rounded=0;" vertex="1" parent="1">
          <mxGeometry x="310" y="640" width="60" height="30" as="geometry" />
        </mxCell>
        <mxCell id="Q8AhBht7Yoh7dVEc8vl9-7" value="" style="curved=1;endArrow=classic;html=1;rounded=0;exitX=0.663;exitY=0.975;exitDx=0;exitDy=0;exitPerimeter=0;entryX=0.35;entryY=0.975;entryDx=0;entryDy=0;entryPerimeter=0;" edge="1" parent="1" source="Q8AhBht7Yoh7dVEc8vl9-8" target="Q8AhBht7Yoh7dVEc8vl9-4">
          <mxGeometry width="50" height="50" relative="1" as="geometry">
            <mxPoint x="500" y="490" as="sourcePoint" />
            <mxPoint x="550" y="440" as="targetPoint" />
            <Array as="points">
              <mxPoint x="370" y="640" />
              <mxPoint x="310" y="640" />
            </Array>
          </mxGeometry>
        </mxCell>
        <mxCell id="Q8AhBht7Yoh7dVEc8vl9-8" value="&lt;font style=&quot;font-size: 22px;&quot;&gt;s4&lt;/font&gt;" style="ellipse;shape=doubleEllipse;whiteSpace=wrap;html=1;aspect=fixed;" vertex="1" parent="1">
          <mxGeometry x="300" y="480" width="80" height="80" as="geometry" />
        </mxCell>
        <mxCell id="Q8AhBht7Yoh7dVEc8vl9-10" value="&lt;div&gt;&lt;font style=&quot;font-size: 18px;&quot;&gt;a&lt;/font&gt;&lt;/div&gt;" style="text;html=1;strokeColor=none;fillColor=none;align=center;verticalAlign=middle;whiteSpace=wrap;rounded=0;" vertex="1" parent="1">
          <mxGeometry x="250" y="300" width="60" height="30" as="geometry" />
        </mxCell>
        <mxCell id="Q8AhBht7Yoh7dVEc8vl9-11" value="&lt;font style=&quot;font-size: 22px;&quot;&gt;s2&lt;/font&gt;" style="ellipse;whiteSpace=wrap;html=1;aspect=fixed;" vertex="1" parent="1">
          <mxGeometry x="300" y="330" width="80" height="80" as="geometry" />
        </mxCell>
        <mxCell id="Q8AhBht7Yoh7dVEc8vl9-12" value="" style="endArrow=classic;html=1;rounded=0;exitX=0.5;exitY=1;exitDx=0;exitDy=0;entryX=0.5;entryY=0;entryDx=0;entryDy=0;" edge="1" parent="1" source="Q8AhBht7Yoh7dVEc8vl9-11" target="Q8AhBht7Yoh7dVEc8vl9-8">
          <mxGeometry width="50" height="50" relative="1" as="geometry">
            <mxPoint x="520" y="490" as="sourcePoint" />
            <mxPoint x="570" y="440" as="targetPoint" />
          </mxGeometry>
        </mxCell>
        <mxCell id="Q8AhBht7Yoh7dVEc8vl9-13" value="" style="curved=1;endArrow=classic;html=1;rounded=0;exitX=0.5;exitY=1;exitDx=0;exitDy=0;entryX=0;entryY=0.5;entryDx=0;entryDy=0;" edge="1" parent="1" source="Q8AhBht7Yoh7dVEc8vl9-1" target="Q8AhBht7Yoh7dVEc8vl9-8">
          <mxGeometry width="50" height="50" relative="1" as="geometry">
            <mxPoint x="520" y="490" as="sourcePoint" />
            <mxPoint x="570" y="440" as="targetPoint" />
            <Array as="points">
              <mxPoint x="200" y="400" />
              <mxPoint x="220" y="490" />
            </Array>
          </mxGeometry>
        </mxCell>
        <mxCell id="Q8AhBht7Yoh7dVEc8vl9-14" value="&lt;font style=&quot;font-size: 18px;&quot;&gt;b&lt;/font&gt;" style="text;html=1;strokeColor=none;fillColor=none;align=center;verticalAlign=middle;whiteSpace=wrap;rounded=0;" vertex="1" parent="1">
          <mxGeometry x="190" y="420" width="60" height="30" as="geometry" />
        </mxCell>
        <mxCell id="Q8AhBht7Yoh7dVEc8vl9-16" value="" style="endArrow=classic;html=1;rounded=0;exitX=1;exitY=1;exitDx=0;exitDy=0;entryX=0;entryY=0;entryDx=0;entryDy=0;" edge="1" parent="1" source="Q8AhBht7Yoh7dVEc8vl9-1" target="Q8AhBht7Yoh7dVEc8vl9-11">
          <mxGeometry width="50" height="50" relative="1" as="geometry">
            <mxPoint x="520" y="490" as="sourcePoint" />
            <mxPoint x="310" y="340" as="targetPoint" />
          </mxGeometry>
        </mxCell>
        <mxCell id="Q8AhBht7Yoh7dVEc8vl9-17" value="&lt;font style=&quot;font-size: 22px;&quot;&gt;s3&lt;/font&gt;" style="ellipse;whiteSpace=wrap;html=1;aspect=fixed;" vertex="1" parent="1">
          <mxGeometry x="430" y="240" width="80" height="80" as="geometry" />
        </mxCell>
        <mxCell id="Q8AhBht7Yoh7dVEc8vl9-18" value="" style="endArrow=classic;html=1;rounded=0;exitX=1;exitY=0;exitDx=0;exitDy=0;entryX=0;entryY=1;entryDx=0;entryDy=0;" edge="1" parent="1" source="Q8AhBht7Yoh7dVEc8vl9-11" target="Q8AhBht7Yoh7dVEc8vl9-17">
          <mxGeometry width="50" height="50" relative="1" as="geometry">
            <mxPoint x="520" y="490" as="sourcePoint" />
            <mxPoint x="570" y="440" as="targetPoint" />
          </mxGeometry>
        </mxCell>
        <mxCell id="Q8AhBht7Yoh7dVEc8vl9-19" value="&lt;font style=&quot;font-size: 18px;&quot;&gt;b&lt;/font&gt;" style="text;html=1;strokeColor=none;fillColor=none;align=center;verticalAlign=middle;whiteSpace=wrap;rounded=0;" vertex="1" parent="1">
          <mxGeometry x="370" y="300" width="60" height="30" as="geometry" />
        </mxCell>
        <mxCell id="Q8AhBht7Yoh7dVEc8vl9-20" value="" style="endArrow=classic;html=1;rounded=0;exitX=0;exitY=0.5;exitDx=0;exitDy=0;entryX=1;entryY=0.5;entryDx=0;entryDy=0;" edge="1" parent="1" source="Q8AhBht7Yoh7dVEc8vl9-17" target="Q8AhBht7Yoh7dVEc8vl9-1">
          <mxGeometry width="50" height="50" relative="1" as="geometry">
            <mxPoint x="520" y="490" as="sourcePoint" />
            <mxPoint x="570" y="440" as="targetPoint" />
          </mxGeometry>
        </mxCell>
      </root>
    </mxGraphModel>
  </diagram>
</mxfile>
